<svg width="24" height="24" viewBox="0 0 24 24" fill="none" xmlns="http://www.w3.org/2000/svg">
<path d="M4.98292 7.19704C6.19132 7.19704 7.17092 6.21744 7.17092 5.00904C7.17092 3.80065 6.19132 2.82104 4.98292 2.82104C3.77452 2.82104 2.79492 3.80065 2.79492 5.00904C2.79492 6.21744 3.77452 7.19704 4.98292 7.19704Z" fill="#999999"/>
<path d="M9.23697 8.85493V20.9939H13.006V14.9909C13.006 13.4069 13.304 11.8729 15.268 11.8729C17.205 11.8729 17.229 13.6839 17.229 15.0909V20.9949H21V14.3379C21 11.0679 20.296 8.55493 16.474 8.55493C14.639 8.55493 13.409 9.56193 12.906 10.5149H12.855V8.85493H9.23697ZM3.09497 8.85493H6.86997V20.9939H3.09497V8.85493Z" fill="#999999"/>
</svg>
