<svg width="24" height="24" viewBox="0 0 24 24" fill="none" xmlns="http://www.w3.org/2000/svg">
<path d="M7.99829 2.99072C5.23729 2.99072 2.99829 5.22972 2.99829 7.99072V15.9907C2.99829 18.7517 5.23729 20.9907 7.99829 20.9907H15.9983C18.7593 20.9907 20.9983 18.7517 20.9983 15.9907V7.99072C20.9983 5.22972 18.7593 2.99072 15.9983 2.99072H7.99829ZM7.99829 4.99072H15.9983C17.6553 4.99072 18.9983 6.33372 18.9983 7.99072V15.9907C18.9983 17.6477 17.6553 18.9907 15.9983 18.9907H7.99829C6.34129 18.9907 4.99829 17.6477 4.99829 15.9907V7.99072C4.99829 6.33372 6.34129 4.99072 7.99829 4.99072ZM15.9983 6.99072C15.4463 6.99072 14.9983 7.43872 14.9983 7.99072C14.9983 8.54272 15.4463 8.99072 15.9983 8.99072C16.5503 8.99072 16.9983 8.54272 16.9983 7.99072C16.9983 7.43872 16.5503 6.99072 15.9983 6.99072ZM11.9983 7.99072C9.78929 7.99072 7.99829 9.78172 7.99829 11.9907C7.99829 14.1997 9.78929 15.9907 11.9983 15.9907C14.2073 15.9907 15.9983 14.1997 15.9983 11.9907C15.9983 9.78172 14.2073 7.99072 11.9983 7.99072ZM11.9983 9.99072C13.1033 9.99072 13.9983 10.8857 13.9983 11.9907C13.9983 13.0957 13.1033 13.9907 11.9983 13.9907C10.8933 13.9907 9.99829 13.0957 9.99829 11.9907C9.99829 10.8857 10.8933 9.99072 11.9983 9.99072Z" fill="#999999"/>
</svg>
