<svg width="133" height="57" viewBox="0 0 133 57" fill="none" xmlns="http://www.w3.org/2000/svg">
<circle cx="26.6466" cy="21.8835" r="16.2185" transform="rotate(19.7601 26.6466 21.8835)" stroke="#0E3178" stroke-width="1.77737"/>
<circle cx="26.8686" cy="22.1057" r="11.1086" stroke="#0C3077" stroke-width="1.77737" stroke-linecap="square" stroke-dasharray="44.43 44.43"/>
<path d="M1.54111 40.7682C3.76282 36.9913 12.6497 30.9927 12.6497 30.9927L17.5375 36.3248C17.5375 36.3248 11.5388 45.2117 7.98409 47.2112C4.42934 49.2108 -0.680609 44.5451 1.54111 40.7682Z" stroke="#0E3178" stroke-width="1.77737"/>
<path d="M21.8611 25.7488V20.4167H31.5859V25.7488C27.8724 28.0041 25.7481 28.1341 21.8611 25.7488Z" fill="#3D568E"/>
<rect x="32.691" y="18.6487" width="1.1051" height="7.51467" rx="0.552549" fill="#3D568E"/>
<path d="M26.561 16.0602L18.4337 19.253C18.066 19.3975 18.0556 19.914 18.4171 20.0732L26.5444 23.6531C26.6585 23.7034 26.7885 23.7034 26.9026 23.6531L35.0299 20.0732C35.3914 19.914 35.381 19.3975 35.0133 19.253L26.886 16.0602C26.7815 16.0191 26.6655 16.0191 26.561 16.0602Z" fill="#FFD503"/>
<path d="M53.4618 28.5212H51.4525L50.794 32.219H47.7547L49.8991 20.0618H55.049C56.321 20.0618 57.2272 20.3544 57.7675 20.9398C58.1615 21.39 58.3585 21.9641 58.3585 22.6621C58.3585 22.8984 58.336 23.1461 58.2909 23.405L57.9532 25.313C57.7844 26.2473 57.2891 27.0184 56.4673 27.6263C55.6456 28.2229 54.6438 28.5212 53.4618 28.5212ZM53.9852 22.6958H52.4656L51.9084 25.8871H53.4111C54.3342 25.8871 54.8689 25.4762 55.0152 24.6545L55.1334 23.9622C55.1559 23.8609 55.1672 23.7258 55.1672 23.557C55.1672 23.3881 55.0828 23.2024 54.9139 22.9998C54.7451 22.7971 54.4355 22.6958 53.9852 22.6958ZM64.3024 32.219L64.4037 29.568H61.5839L60.7565 32.219H57.5315L61.8709 20.0618H67.443L67.5106 32.219H64.3024ZM63.6101 23.0166L62.2762 27.3054H64.4881L64.6739 23.0166H63.6101ZM72.2179 28.7576C72.2179 29.5343 72.7751 29.9226 73.8895 29.9226C75.0152 29.9226 75.578 29.5737 75.578 28.8758C75.578 28.5043 75.3867 28.2004 75.004 27.964C74.6212 27.7276 74.1541 27.5306 73.6025 27.373C73.0622 27.2154 72.5162 27.0353 71.9646 26.8327C71.4243 26.6188 70.9628 26.2923 70.5801 25.8533C70.1973 25.4031 70.006 24.8459 70.006 24.1817C70.006 21.3563 71.8239 19.9436 75.4599 19.9436C76.7881 19.9436 77.79 20.1968 78.4654 20.7034C79.152 21.1987 79.4954 21.891 79.4954 22.7803C79.4954 23.1067 79.4504 23.4219 79.3603 23.7258C79.2815 24.0185 79.1971 24.2267 79.107 24.3506L78.9719 24.5532H75.9833C76.2309 24.2943 76.3548 23.9678 76.3548 23.5738C76.3548 22.8422 75.8763 22.4763 74.9195 22.4763C73.7151 22.4763 73.1128 22.859 73.1128 23.6245C73.1128 24.0072 73.3042 24.3112 73.6869 24.5363C74.0696 24.7614 74.5312 24.9415 75.0715 25.0766C75.6231 25.2004 76.1747 25.358 76.7262 25.5494C77.2778 25.7408 77.745 26.0616 78.1277 26.5118C78.5104 26.9509 78.7018 27.525 78.7018 28.2341C78.7018 29.6637 78.274 30.7275 77.4185 31.4254C76.563 32.1121 75.246 32.4554 73.4674 32.4554C71.6889 32.4554 70.4731 32.1402 69.8202 31.5098C69.3362 31.037 69.0942 30.3842 69.0942 29.5512C69.0942 29.236 69.128 28.8926 69.1955 28.5212L69.2462 28.251H72.2855L72.2517 28.4536C72.2292 28.5662 72.2179 28.6675 72.2179 28.7576Z" fill="url(#paint0_linear_7_1056)"/>
<path d="M100.397 28.754H93.4738L90.6877 44.626H85.5941L88.3801 28.754H81.4291L82.2171 24.3639H101.185L100.397 28.754Z" fill="#0E3178"/>
<path d="M102.429 38.4834C102.429 38.8661 102.361 39.2376 102.226 39.5978C102.102 39.958 101.978 40.2225 101.854 40.3914L101.669 40.6278H99.119C99.4005 40.3689 99.5412 40.0481 99.5412 39.6653C99.5412 39.4627 99.4736 39.2995 99.3386 39.1757C99.2147 39.0406 99.0403 38.973 98.8151 38.973C98.4324 38.973 98.1003 39.1644 97.8189 39.5471L96.8733 44.8828H94.0029L95.4381 36.7611H98.1059L97.9033 37.8924C98.545 36.9806 99.3217 36.5247 100.233 36.5247C100.965 36.5247 101.511 36.6992 101.871 37.0481C102.243 37.3971 102.429 37.8755 102.429 38.4834ZM110.832 42.2825C110.832 42.5752 110.978 42.7215 111.271 42.7215C111.575 42.7215 111.828 42.6652 112.031 42.5527L111.946 44.4607C111.406 44.8997 110.798 45.1192 110.123 45.1192C108.884 45.1192 108.198 44.6689 108.063 43.7684C107.5 44.6689 106.672 45.1192 105.58 45.1192C103.734 45.1192 102.811 44.3256 102.811 42.7384C102.811 42.4683 102.839 42.1699 102.896 41.8435L103.25 39.868C103.43 38.8549 103.841 38.05 104.483 37.4534C105.136 36.8455 105.98 36.5416 107.016 36.5416C108.063 36.5416 108.772 36.7836 109.143 37.2677L109.228 36.7611H111.794L110.849 42.0799C110.837 42.1474 110.832 42.215 110.832 42.2825ZM105.834 41.472C105.811 41.5733 105.8 41.7141 105.8 41.8942C105.8 42.0743 105.884 42.2544 106.053 42.4345C106.222 42.6033 106.504 42.6878 106.898 42.6878C107.303 42.6878 107.652 42.5302 107.944 42.215L108.451 39.3783C108.327 39.0969 108.034 38.9562 107.573 38.9562C106.706 38.9562 106.2 39.3727 106.053 40.2057L105.834 41.472ZM116.481 45.1192C114.139 45.1192 112.969 44.3087 112.969 42.6878C112.969 42.4626 112.991 42.2206 113.036 41.9617L113.391 39.868C113.571 38.7873 114.061 37.9599 114.86 37.3859C115.67 36.8118 116.695 36.5191 117.933 36.5078C120.331 36.5078 121.529 37.3408 121.529 39.0068C121.529 39.367 121.484 39.6935 121.394 39.9861C121.316 40.2676 121.231 40.4589 121.141 40.5602L121.006 40.7291H118.136C118.417 40.4814 118.558 40.1888 118.558 39.8511C118.558 39.2432 118.254 38.9393 117.646 38.9393C117.286 38.9393 116.976 39.0462 116.717 39.2601C116.458 39.474 116.289 39.8004 116.211 40.2394L115.991 41.472C115.969 41.5846 115.957 41.6915 115.957 41.7928C115.957 42.3895 116.329 42.6878 117.072 42.6878C117.319 42.6878 117.539 42.609 117.73 42.4514C117.933 42.2938 118.051 42.1193 118.085 41.9279L120.888 41.9617C120.516 44.0667 119.047 45.1192 116.481 45.1192ZM130.441 42.7215C130.7 42.7215 130.931 42.6652 131.134 42.5527L131.049 44.4607C130.52 44.8997 129.873 45.1192 129.108 45.1192C128.342 45.1192 127.774 44.9166 127.402 44.5113C127.042 44.1061 126.761 43.4251 126.558 42.4683L126.507 42.2319C126.271 42.2656 125.916 42.2938 125.443 42.3163L124.988 44.8828H122.117L124.38 32.0671H127.25L126.271 37.6222C126.935 36.8906 127.836 36.5247 128.972 36.5247C129.738 36.5247 130.301 36.7161 130.661 37.0988C131.032 37.4703 131.218 37.9712 131.218 38.6016C131.218 39.8173 130.582 40.7685 129.31 41.4551L129.496 42.0799C129.62 42.5076 129.935 42.7215 130.441 42.7215ZM127.52 38.8211C126.912 38.8211 126.372 39.1081 125.899 39.6822L125.714 40.7966C127.38 40.7291 128.213 40.2845 128.213 39.4627C128.213 39.2713 128.151 39.1194 128.027 39.0068C127.914 38.883 127.745 38.8211 127.52 38.8211Z" fill="#0E3178"/>
<rect x="43.2126" y="40.7192" width="8.85944" height="2.21486" rx="1.10743" fill="url(#paint1_linear_7_1056)"/>
<rect x="54.4694" y="40.9536" width="28.1417" height="2.21486" rx="1.10743" fill="url(#paint2_linear_7_1056)"/>
<rect x="47.6423" y="36.7324" width="28.1417" height="2.21486" rx="1.10743" fill="url(#paint3_linear_7_1056)"/>
<rect x="44.0204" y="47.7285" width="6.64458" height="2.21486" rx="1.10743" fill="url(#paint4_linear_7_1056)"/>
<rect x="48.9712" y="44.7058" width="25.3276" height="2.21486" rx="1.10743" fill="url(#paint5_linear_7_1056)"/>
<defs>
<linearGradient id="paint0_linear_7_1056" x1="79.7968" y1="14.219" x2="79.126" y2="9.0758" gradientUnits="userSpaceOnUse">
<stop offset="0.19325" stop-color="#0E3178"/>
</linearGradient>
<linearGradient id="paint1_linear_7_1056" x1="50.9647" y1="40.7192" x2="43.3709" y2="40.7192" gradientUnits="userSpaceOnUse">
<stop offset="0.0525318" stop-color="#59709F"/>
<stop offset="0.921875" stop-color="#A8B2C7"/>
</linearGradient>
<linearGradient id="paint2_linear_7_1056" x1="79.0934" y1="40.9536" x2="54.9719" y2="40.9536" gradientUnits="userSpaceOnUse">
<stop offset="0.114583" stop-color="#0E3178"/>
<stop offset="0.630208" stop-color="#0E3178" stop-opacity="0.791059"/>
<stop offset="1" stop-color="#0E3178" stop-opacity="0.63"/>
</linearGradient>
<linearGradient id="paint3_linear_7_1056" x1="72.2664" y1="36.7324" x2="48.1449" y2="36.7324" gradientUnits="userSpaceOnUse">
<stop stop-color="#294786"/>
<stop offset="0.590787" stop-color="#536B9C"/>
<stop offset="0.973958" stop-color="#8293B4"/>
</linearGradient>
<linearGradient id="paint4_linear_7_1056" x1="49.8344" y1="47.7285" x2="44.139" y2="47.7285" gradientUnits="userSpaceOnUse">
<stop stop-color="#0E3178" stop-opacity="0.6"/>
<stop offset="0.848958" stop-color="#0E3178" stop-opacity="0.3"/>
</linearGradient>
<linearGradient id="paint5_linear_7_1056" x1="71.1328" y1="44.7058" x2="49.4235" y2="44.7058" gradientUnits="userSpaceOnUse">
<stop offset="0.0364583" stop-color="#0E3178"/>
<stop offset="0.592143" stop-color="#2A4987"/>
<stop offset="0.901471" stop-color="#59709F"/>
</linearGradient>
</defs>
</svg>
