<svg width="24" height="24" viewBox="0 0 24 24" fill="none" xmlns="http://www.w3.org/2000/svg">
<path d="M5.99902 4.88281C3.78992 4.88281 1.99902 6.67381 1.99902 8.88281V14.8828C1.99902 17.0918 3.78992 18.8828 5.99902 18.8828H17.999C20.2081 18.8828 21.999 17.0918 21.999 14.8828V8.88281C21.999 6.67381 20.2081 4.88281 17.999 4.88281H5.99902ZM10.7133 8.88281C10.8376 8.88281 10.9463 8.91781 11.0481 8.97681C11.106 9.00981 14.6689 11.2088 14.7981 11.3438C14.9278 11.4798 14.999 11.6748 14.999 11.8828C14.999 12.0148 14.9664 12.1268 14.9097 12.2348C14.8635 12.3218 14.8055 12.4068 14.7311 12.4688C14.6095 12.5698 11.0256 14.8038 10.9365 14.8358C10.8637 14.8618 10.7945 14.8828 10.7133 14.8828C10.5348 14.8828 10.3697 14.8088 10.2445 14.6948C10.093 14.5578 9.99903 14.3598 9.99903 14.1328C9.99903 13.9278 9.99903 9.83681 9.99903 9.63281C9.99903 9.21881 10.3188 8.88281 10.7133 8.88281Z" fill="#999999"/>
</svg>
