<svg width="324" height="16" viewBox="0 0 324 16" fill="none" xmlns="http://www.w3.org/2000/svg">
<path d="M3 6.60101C3 5.9798 3.15152 5.41351 3.45455 4.90214C3.75758 4.39078 4.16477 3.98358 4.67614 3.68055C5.1875 3.37752 5.75379 3.22601 6.375 3.22601C6.91288 3.22601 7.40909 3.34154 7.86364 3.5726C8.32197 3.80366 8.70076 4.11995 9 4.52146C9.29924 4.91919 9.48485 5.36995 9.55682 5.87373H8.18182C8.10606 5.48358 7.89583 5.1654 7.55114 4.91919C7.20644 4.66919 6.81439 4.54419 6.375 4.54419C5.99621 4.54419 5.65152 4.63699 5.34091 4.8226C5.0303 5.0082 4.7822 5.25631 4.59659 5.56692C4.41098 5.87752 4.31818 6.22222 4.31818 6.60101C4.31818 6.9798 4.41098 7.32449 4.59659 7.6351C4.7822 7.9457 5.0303 8.19381 5.34091 8.37942C5.65152 8.56502 5.99621 8.65783 6.375 8.65783C6.81439 8.65783 7.18561 8.53472 7.48864 8.28851C7.79545 8.03851 7.98864 7.71843 8.06818 7.32828H9.44318C9.37121 7.83207 9.19508 8.28472 8.91477 8.68623C8.63447 9.08396 8.27462 9.39836 7.83523 9.62942C7.39962 9.86048 6.91288 9.97601 6.375 9.97601C5.75379 9.97601 5.1875 9.82449 4.67614 9.52146C4.16477 9.21843 3.75758 8.81123 3.45455 8.29987C3.15152 7.78851 3 7.22222 3 6.60101ZM6.31818 12.601C5.49242 12.601 4.71591 12.4457 3.98864 12.1351C3.26515 11.8245 2.62689 11.3946 2.07386 10.8453C1.52462 10.2923 1.0928 9.65404 0.778409 8.93055C0.467803 8.20707 0.314394 7.43055 0.318182 6.60101C0.32197 5.77146 0.479167 4.99495 0.789773 4.27146C1.10417 3.54798 1.53598 2.91161 2.08523 2.36237C2.63447 1.80934 3.27083 1.37752 3.99432 1.06692C4.7178 0.75631 5.49242 0.601007 6.31818 0.601007C7.14773 0.601007 7.92424 0.75631 8.64773 1.06692C9.375 1.37752 10.0114 1.80934 10.5568 2.36237C11.1061 2.91161 11.536 3.54798 11.8466 4.27146C12.1572 4.99495 12.3144 5.77146 12.3182 6.60101C12.322 7.43055 12.1686 8.20707 11.858 8.93055C11.5473 9.65404 11.1174 10.2923 10.5682 10.8453C10.0189 11.3946 9.38068 11.8245 8.65341 12.1351C7.92614 12.4457 7.14773 12.601 6.31818 12.601ZM6.31818 11.2828C6.96591 11.2828 7.57386 11.1616 8.14205 10.9192C8.71023 10.6768 9.20833 10.3415 9.63636 9.91351C10.0644 9.48548 10.3996 8.98927 10.642 8.42487C10.8845 7.85669 11.0038 7.25063 11 6.60669C10.9962 5.95896 10.8731 5.35101 10.6307 4.78283C10.3883 4.21464 10.053 3.71654 9.625 3.28851C9.19697 2.86048 8.70076 2.52525 8.13636 2.28283C7.57197 2.0404 6.96591 1.91919 6.31818 1.91919C5.67424 1.91919 5.07008 2.0404 4.50568 2.28283C3.94129 2.52525 3.44508 2.86237 3.01705 3.29419C2.58902 3.72222 2.25189 4.22033 2.00568 4.78851C1.76326 5.3529 1.64015 5.95896 1.63636 6.60669C1.63258 7.24684 1.75189 7.85101 1.99432 8.41919C2.23674 8.98358 2.57197 9.4798 3 9.90783C3.43182 10.3359 3.92992 10.673 4.49432 10.9192C5.0625 11.1616 5.67045 11.2828 6.31818 11.2828ZM19.3452 12.4192V11.3965L23.1861 7.19192C23.6368 6.69949 24.008 6.27146 24.2997 5.90783C24.5914 5.5404 24.8073 5.1957 24.9474 4.87373C25.0914 4.54798 25.1634 4.20707 25.1634 3.85101C25.1634 3.44192 25.0649 3.08775 24.8679 2.78851C24.6747 2.48926 24.4096 2.2582 24.0724 2.09533C23.7353 1.93245 23.3565 1.85101 22.9361 1.85101C22.4891 1.85101 22.099 1.94381 21.7656 2.12942C21.4361 2.31123 21.1804 2.56692 20.9986 2.89646C20.8205 3.22601 20.7315 3.61237 20.7315 4.05555H19.3906C19.3906 3.37373 19.5478 2.77525 19.8622 2.2601C20.1766 1.74495 20.6046 1.34343 21.1463 1.05555C21.6918 0.767674 22.3035 0.623734 22.9815 0.623734C23.6634 0.623734 24.2675 0.767674 24.794 1.05555C25.3205 1.34343 25.7334 1.73169 26.0327 2.22033C26.3319 2.70896 26.4815 3.25252 26.4815 3.85101C26.4815 4.27904 26.4039 4.6976 26.2486 5.10669C26.0971 5.51199 25.8319 5.96464 25.4531 6.46464C25.0781 6.96086 24.5573 7.56692 23.8906 8.28283L21.277 11.0783V11.1692H26.6861V12.4192H19.3452ZM32.8281 12.5783C31.9721 12.5783 31.2429 12.3453 30.6406 11.8794C30.0384 11.4097 29.5781 10.7298 29.2599 9.83964C28.9418 8.9457 28.7827 7.86616 28.7827 6.60101C28.7827 5.34343 28.9418 4.26957 29.2599 3.37942C29.5819 2.48548 30.044 1.80366 30.6463 1.33396C31.2524 0.860477 31.9796 0.623734 32.8281 0.623734C33.6766 0.623734 34.402 0.860477 35.0043 1.33396C35.6103 1.80366 36.0724 2.48548 36.3906 3.37942C36.7126 4.26957 36.8736 5.34343 36.8736 6.60101C36.8736 7.86616 36.7145 8.9457 36.3963 9.83964C36.0781 10.7298 35.6179 11.4097 35.0156 11.8794C34.4134 12.3453 33.6842 12.5783 32.8281 12.5783ZM32.8281 11.3283C33.6766 11.3283 34.3357 10.9192 34.8054 10.101C35.2751 9.28283 35.5099 8.11616 35.5099 6.60101C35.5099 5.59343 35.402 4.73548 35.1861 4.02714C34.974 3.31881 34.6671 2.77904 34.2656 2.40783C33.8679 2.03661 33.3887 1.85101 32.8281 1.85101C31.9872 1.85101 31.33 2.26578 30.8565 3.09533C30.383 3.92108 30.1463 5.08964 30.1463 6.60101C30.1463 7.60858 30.2524 8.46464 30.4645 9.16919C30.6766 9.87373 30.9815 10.4097 31.3793 10.7771C31.7808 11.1446 32.2637 11.3283 32.8281 11.3283ZM39.0327 12.4192V11.3965L42.8736 7.19192C43.3243 6.69949 43.6955 6.27146 43.9872 5.90783C44.2789 5.5404 44.4948 5.1957 44.6349 4.87373C44.7789 4.54798 44.8509 4.20707 44.8509 3.85101C44.8509 3.44192 44.7524 3.08775 44.5554 2.78851C44.3622 2.48926 44.0971 2.2582 43.7599 2.09533C43.4228 1.93245 43.044 1.85101 42.6236 1.85101C42.1766 1.85101 41.7865 1.94381 41.4531 2.12942C41.1236 2.31123 40.8679 2.56692 40.6861 2.89646C40.508 3.22601 40.419 3.61237 40.419 4.05555H39.0781C39.0781 3.37373 39.2353 2.77525 39.5497 2.2601C39.8641 1.74495 40.2921 1.34343 40.8338 1.05555C41.3793 0.767674 41.991 0.623734 42.669 0.623734C43.3509 0.623734 43.955 0.767674 44.4815 1.05555C45.008 1.34343 45.4209 1.73169 45.7202 2.22033C46.0194 2.70896 46.169 3.25252 46.169 3.85101C46.169 4.27904 46.0914 4.6976 45.9361 5.10669C45.7846 5.51199 45.5194 5.96464 45.1406 6.46464C44.7656 6.96086 44.2448 7.56692 43.5781 8.28283L40.9645 11.0783V11.1692H46.3736V12.4192H39.0327ZM52.652 12.5783C51.902 12.5783 51.2334 12.4495 50.6463 12.1919C50.063 11.9343 49.599 11.5764 49.2543 11.1181C48.9134 10.6559 48.7277 10.1199 48.6974 9.5101H50.1293C50.1596 9.8851 50.2884 10.209 50.5156 10.4817C50.7429 10.7506 51.0402 10.959 51.4077 11.1067C51.7751 11.2544 52.1823 11.3283 52.6293 11.3283C53.1293 11.3283 53.5724 11.2412 53.9588 11.0669C54.3452 10.8927 54.6482 10.6503 54.8679 10.3396C55.0876 10.029 55.1974 9.66919 55.1974 9.2601C55.1974 8.83207 55.0914 8.45517 54.8793 8.12942C54.6671 7.79987 54.3565 7.5423 53.9474 7.35669C53.5384 7.17108 53.0384 7.07828 52.4474 7.07828H51.5156V5.82828H52.4474C52.9096 5.82828 53.3149 5.74495 53.6634 5.57828C54.0156 5.41161 54.2902 5.17676 54.4872 4.87373C54.688 4.5707 54.7884 4.21464 54.7884 3.80555C54.7884 3.41161 54.7012 3.06881 54.527 2.77714C54.3527 2.48548 54.1065 2.2582 53.7884 2.09533C53.474 1.93245 53.1027 1.85101 52.6747 1.85101C52.2732 1.85101 51.8944 1.92487 51.5384 2.0726C51.1861 2.21654 50.8982 2.42677 50.6747 2.70328C50.4512 2.97601 50.33 3.30555 50.3111 3.69192H48.9474C48.9702 3.08207 49.1539 2.54798 49.4986 2.08964C49.8433 1.62752 50.294 1.26767 50.8509 1.0101C51.4115 0.752522 52.027 0.623734 52.6974 0.623734C53.4171 0.623734 54.0346 0.769568 54.5497 1.06123C55.0649 1.34911 55.4607 1.7298 55.7372 2.20328C56.0137 2.67677 56.152 3.18813 56.152 3.73737C56.152 4.39267 55.9796 4.95139 55.6349 5.41351C55.294 5.87563 54.83 6.1957 54.2429 6.37373V6.46464C54.9777 6.58586 55.5516 6.89836 55.9645 7.40214C56.3774 7.90214 56.5838 8.52146 56.5838 9.2601C56.5838 9.89267 56.4115 10.4609 56.0668 10.9646C55.7259 11.4646 55.2599 11.8586 54.669 12.1465C54.0781 12.4343 53.4058 12.5783 52.652 12.5783ZM63.6122 12.4192V0.782825H67.544C68.4569 0.782825 69.2031 0.947598 69.7827 1.27714C70.366 1.6029 70.7978 2.04419 71.0781 2.60101C71.3584 3.15783 71.4986 3.77904 71.4986 4.46464C71.4986 5.15025 71.3584 5.77336 71.0781 6.33396C70.8016 6.89457 70.3736 7.34154 69.794 7.67487C69.2145 8.00442 68.4721 8.16919 67.5668 8.16919H64.7486V6.91919H67.5213C68.1463 6.91919 68.6482 6.81123 69.027 6.59533C69.4058 6.37942 69.6804 6.08775 69.8509 5.72033C70.0251 5.34911 70.1122 4.93055 70.1122 4.46464C70.1122 3.99873 70.0251 3.58207 69.8509 3.21464C69.6804 2.84722 69.4039 2.55934 69.0213 2.35101C68.6387 2.13889 68.1312 2.03283 67.4986 2.03283H65.0213V12.4192H63.6122ZM73.7685 12.4192V0.782825H77.7003C78.6094 0.782825 79.3556 0.938128 79.9389 1.24873C80.5223 1.55555 80.9541 1.9779 81.2344 2.51578C81.5147 3.05366 81.6548 3.6654 81.6548 4.35101C81.6548 5.03661 81.5147 5.64457 81.2344 6.17487C80.9541 6.70517 80.5241 7.12184 79.9446 7.42487C79.3651 7.72411 78.6245 7.87373 77.723 7.87373H74.5412V6.60101H77.6776C78.2988 6.60101 78.7988 6.5101 79.1776 6.32828C79.5601 6.14646 79.8366 5.88889 80.0071 5.55555C80.1813 5.21843 80.2685 4.81692 80.2685 4.35101C80.2685 3.8851 80.1813 3.4779 80.0071 3.12942C79.8329 2.78093 79.5545 2.51199 79.1719 2.3226C78.7893 2.12942 78.2836 2.03283 77.6548 2.03283H75.1776V12.4192H73.7685ZM79.2457 7.19192L82.1094 12.4192H80.473L77.6548 7.19192H79.2457ZM93.821 6.60101C93.821 7.82828 93.5994 8.88889 93.1562 9.78283C92.7131 10.6768 92.1051 11.3662 91.3324 11.851C90.5597 12.3359 89.6771 12.5783 88.6847 12.5783C87.6922 12.5783 86.8097 12.3359 86.0369 11.851C85.2642 11.3662 84.6563 10.6768 84.2131 9.78283C83.7699 8.88889 83.5483 7.82828 83.5483 6.60101C83.5483 5.37373 83.7699 4.31313 84.2131 3.41919C84.6563 2.52525 85.2642 1.83586 86.0369 1.35101C86.8097 0.866159 87.6922 0.623734 88.6847 0.623734C89.6771 0.623734 90.5597 0.866159 91.3324 1.35101C92.1051 1.83586 92.7131 2.52525 93.1562 3.41919C93.5994 4.31313 93.821 5.37373 93.821 6.60101ZM92.4574 6.60101C92.4574 5.59343 92.2888 4.74305 91.9517 4.04987C91.6184 3.35669 91.1657 2.83207 90.5938 2.47601C90.0256 2.11995 89.3892 1.94192 88.6847 1.94192C87.9801 1.94192 87.3419 2.11995 86.7699 2.47601C86.2017 2.83207 85.7491 3.35669 85.4119 4.04987C85.0786 4.74305 84.9119 5.59343 84.9119 6.60101C84.9119 7.60858 85.0786 8.45896 85.4119 9.15214C85.7491 9.84533 86.2017 10.3699 86.7699 10.726C87.3419 11.0821 87.9801 11.2601 88.6847 11.2601C89.3892 11.2601 90.0256 11.0821 90.5938 10.726C91.1657 10.3699 91.6184 9.84533 91.9517 9.15214C92.2888 8.45896 92.4574 7.60858 92.4574 6.60101ZM96.1903 12.4192V0.782825H100.122C101.035 0.782825 101.781 0.947598 102.361 1.27714C102.944 1.6029 103.376 2.04419 103.656 2.60101C103.937 3.15783 104.077 3.77904 104.077 4.46464C104.077 5.15025 103.937 5.77336 103.656 6.33396C103.38 6.89457 102.952 7.34154 102.372 7.67487C101.793 8.00442 101.05 8.16919 100.145 8.16919H97.3267V6.91919H100.099C100.724 6.91919 101.226 6.81123 101.605 6.59533C101.984 6.37942 102.259 6.08775 102.429 5.72033C102.603 5.34911 102.69 4.93055 102.69 4.46464C102.69 3.99873 102.603 3.58207 102.429 3.21464C102.259 2.84722 101.982 2.55934 101.599 2.35101C101.217 2.13889 100.709 2.03283 100.077 2.03283H97.5994V12.4192H96.1903ZM106.347 12.4192V0.782825H113.369V2.03283H107.756V5.96464H113.006V7.21464H107.756V11.1692H113.46V12.4192H106.347ZM125.136 0.782825V12.4192H123.773L117.432 3.28283H117.318V12.4192H115.909V0.782825H117.273L123.636 9.94192H123.75V0.782825H125.136ZM134.32 3.69192C134.251 3.11616 133.975 2.66919 133.49 2.35101C133.005 2.03283 132.411 1.87373 131.706 1.87373C131.191 1.87373 130.74 1.95707 130.354 2.12373C129.971 2.2904 129.672 2.51957 129.456 2.81123C129.244 3.1029 129.138 3.43434 129.138 3.80555C129.138 4.11616 129.212 4.3832 129.359 4.60669C129.511 4.82639 129.704 5.0101 129.939 5.15783C130.174 5.30176 130.42 5.42108 130.678 5.51578C130.935 5.60669 131.172 5.68055 131.388 5.73737L132.57 6.05555C132.873 6.1351 133.21 6.24495 133.581 6.3851C133.956 6.52525 134.314 6.71654 134.655 6.95896C135 7.1976 135.284 7.50442 135.507 7.87942C135.731 8.25442 135.842 8.71464 135.842 9.2601C135.842 9.88889 135.678 10.4571 135.348 10.9646C135.022 11.4722 134.545 11.8756 133.916 12.1749C133.291 12.4741 132.532 12.6237 131.638 12.6237C130.804 12.6237 130.083 12.4893 129.473 12.2203C128.867 11.9514 128.39 11.5764 128.041 11.0953C127.696 10.6143 127.501 10.0556 127.456 9.41919H128.911C128.948 9.85858 129.096 10.2222 129.354 10.5101C129.615 10.7942 129.945 11.0063 130.342 11.1465C130.744 11.2828 131.176 11.351 131.638 11.351C132.176 11.351 132.659 11.2639 133.087 11.0896C133.515 10.9116 133.854 10.6654 134.104 10.351C134.354 10.0328 134.479 9.66161 134.479 9.23737C134.479 8.85101 134.371 8.53661 134.155 8.29419C133.939 8.05177 133.655 7.8548 133.303 7.70328C132.95 7.55177 132.57 7.41919 132.161 7.30555L130.729 6.89646C129.82 6.6351 129.1 6.26199 128.57 5.77714C128.039 5.2923 127.774 4.65783 127.774 3.87373C127.774 3.22222 127.95 2.65404 128.303 2.16919C128.659 1.68055 129.136 1.30176 129.734 1.03283C130.337 0.760098 131.009 0.623734 131.751 0.623734C132.501 0.623734 133.168 0.758204 133.751 1.02714C134.335 1.29229 134.797 1.65593 135.138 2.11805C135.482 2.58017 135.664 3.1048 135.683 3.69192H134.32ZM139.568 0.782825V12.4192H138.159V0.782825H139.568ZM156.257 4.41919H154.848C154.765 4.01389 154.619 3.65783 154.411 3.35101C154.206 3.04419 153.956 2.78661 153.661 2.57828C153.369 2.36616 153.045 2.20707 152.689 2.10101C152.333 1.99495 151.962 1.94192 151.575 1.94192C150.871 1.94192 150.232 2.11995 149.661 2.47601C149.092 2.83207 148.64 3.35669 148.303 4.04987C147.969 4.74305 147.803 5.59343 147.803 6.60101C147.803 7.60858 147.969 8.45896 148.303 9.15214C148.64 9.84533 149.092 10.3699 149.661 10.726C150.232 11.0821 150.871 11.2601 151.575 11.2601C151.962 11.2601 152.333 11.2071 152.689 11.101C153.045 10.9949 153.369 10.8378 153.661 10.6294C153.956 10.4173 154.206 10.1578 154.411 9.85101C154.619 9.5404 154.765 9.18434 154.848 8.78283H156.257C156.151 9.37752 155.958 9.90972 155.678 10.3794C155.397 10.8491 155.049 11.2487 154.632 11.5783C154.215 11.904 153.748 12.1521 153.229 12.3226C152.714 12.4931 152.162 12.5783 151.575 12.5783C150.583 12.5783 149.7 12.3359 148.928 11.851C148.155 11.3662 147.547 10.6768 147.104 9.78283C146.661 8.88889 146.439 7.82828 146.439 6.60101C146.439 5.37373 146.661 4.31313 147.104 3.41919C147.547 2.52525 148.155 1.83586 148.928 1.35101C149.7 0.866159 150.583 0.623734 151.575 0.623734C152.162 0.623734 152.714 0.708962 153.229 0.879416C153.748 1.04987 154.215 1.29987 154.632 1.62942C155.049 1.95517 155.397 2.3529 155.678 2.8226C155.958 3.28851 156.151 3.8207 156.257 4.41919ZM162.125 12.5783C161.269 12.5783 160.54 12.3453 159.938 11.8794C159.335 11.4097 158.875 10.7298 158.557 9.83964C158.239 8.9457 158.08 7.86616 158.08 6.60101C158.08 5.34343 158.239 4.26957 158.557 3.37942C158.879 2.48548 159.341 1.80366 159.943 1.33396C160.549 0.860477 161.277 0.623734 162.125 0.623734C162.973 0.623734 163.699 0.860477 164.301 1.33396C164.907 1.80366 165.369 2.48548 165.688 3.37942C166.009 4.26957 166.17 5.34343 166.17 6.60101C166.17 7.86616 166.011 8.9457 165.693 9.83964C165.375 10.7298 164.915 11.4097 164.312 11.8794C163.71 12.3453 162.981 12.5783 162.125 12.5783ZM162.125 11.3283C162.973 11.3283 163.633 10.9192 164.102 10.101C164.572 9.28283 164.807 8.11616 164.807 6.60101C164.807 5.59343 164.699 4.73548 164.483 4.02714C164.271 3.31881 163.964 2.77904 163.562 2.40783C163.165 2.03661 162.686 1.85101 162.125 1.85101C161.284 1.85101 160.627 2.26578 160.153 3.09533C159.68 3.92108 159.443 5.08964 159.443 6.60101C159.443 7.60858 159.549 8.46464 159.761 9.16919C159.973 9.87373 160.278 10.4097 160.676 10.7771C161.078 11.1446 161.561 11.3283 162.125 11.3283ZM168.381 12.4192L173.585 2.12373V2.03283H167.585V0.782825H175.04V2.10101L169.858 12.4192H168.381ZM176.158 12.5101C175.877 12.5101 175.637 12.4097 175.436 12.209C175.235 12.0082 175.135 11.7677 175.135 11.4874C175.135 11.2071 175.235 10.9665 175.436 10.7658C175.637 10.565 175.877 10.4646 176.158 10.4646C176.438 10.4646 176.679 10.565 176.879 10.7658C177.08 10.9665 177.18 11.2071 177.18 11.4874C177.18 11.673 177.133 11.8434 177.038 11.9987C176.947 12.154 176.824 12.279 176.669 12.3737C176.518 12.4646 176.347 12.5101 176.158 12.5101ZM184.746 12.4192H183.268L187.541 0.782825H188.996L193.268 12.4192H191.791L188.314 2.62373H188.223L184.746 12.4192ZM185.291 7.87373H191.246V9.12373H185.291V7.87373ZM196.24 0.782825V12.4192H194.899V0.782825H196.24ZM200.037 0.782825V12.4192H198.696V0.782825H200.037ZM206.993 12.4192V3.69192H208.288V5.0101H208.379C208.538 4.57828 208.826 4.2279 209.243 3.95896C209.66 3.69002 210.129 3.55555 210.652 3.55555C210.75 3.55555 210.874 3.55745 211.021 3.56123C211.169 3.56502 211.281 3.5707 211.357 3.57828V4.94192C211.311 4.93055 211.207 4.91351 211.044 4.89078C210.885 4.86426 210.716 4.85101 210.538 4.85101C210.114 4.85101 209.735 4.94002 209.402 5.11805C209.072 5.2923 208.811 5.53472 208.618 5.84533C208.429 6.15214 208.334 6.50252 208.334 6.89646V12.4192H206.993ZM212.946 12.4192V3.69192H214.287V12.4192H212.946ZM213.628 2.23737C213.366 2.23737 213.141 2.14836 212.952 1.97033C212.766 1.7923 212.673 1.57828 212.673 1.32828C212.673 1.07828 212.766 0.864265 212.952 0.686234C213.141 0.508204 213.366 0.419189 213.628 0.419189C213.889 0.419189 214.113 0.508204 214.298 0.686234C214.488 0.864265 214.582 1.07828 214.582 1.32828C214.582 1.57828 214.488 1.7923 214.298 1.97033C214.113 2.14836 213.889 2.23737 213.628 2.23737ZM220.266 15.8737C219.618 15.8737 219.061 15.7904 218.595 15.6237C218.129 15.4609 217.741 15.2449 217.43 14.976C217.124 14.7109 216.879 14.4268 216.697 14.1237L217.766 13.3737C217.887 13.5328 218.04 13.7146 218.226 13.9192C218.411 14.1275 218.665 14.3074 218.987 14.459C219.313 14.6143 219.739 14.6919 220.266 14.6919C220.97 14.6919 221.552 14.5215 222.01 14.1806C222.468 13.8396 222.697 13.3056 222.697 12.5783V10.8056H222.584C222.485 10.9646 222.345 11.1616 222.163 11.3965C221.985 11.6275 221.728 11.834 221.391 12.0158C221.057 12.1938 220.607 12.2828 220.038 12.2828C219.334 12.2828 218.701 12.1162 218.141 11.7828C217.584 11.4495 217.143 10.9646 216.817 10.3283C216.495 9.69192 216.334 8.91919 216.334 8.0101C216.334 7.11616 216.491 6.33775 216.805 5.67487C217.12 5.0082 217.557 4.49305 218.118 4.12942C218.679 3.76199 219.326 3.57828 220.061 3.57828C220.629 3.57828 221.08 3.67298 221.413 3.86237C221.75 4.04798 222.008 4.2601 222.186 4.49873C222.368 4.73358 222.508 4.92676 222.607 5.07828H222.743V3.69192H224.038V12.6692C224.038 13.4192 223.868 14.029 223.527 14.4987C223.19 14.9722 222.735 15.3188 222.163 15.5385C221.595 15.762 220.963 15.8737 220.266 15.8737ZM220.22 11.0783C220.758 11.0783 221.213 10.9552 221.584 10.709C221.955 10.4627 222.237 10.1086 222.43 9.64646C222.624 9.18434 222.72 8.63131 222.72 7.98737C222.72 7.35858 222.625 6.80366 222.436 6.3226C222.247 5.84154 221.966 5.46464 221.595 5.19192C221.224 4.91919 220.766 4.78283 220.22 4.78283C219.652 4.78283 219.179 4.92676 218.8 5.21464C218.425 5.50252 218.143 5.88889 217.953 6.37373C217.768 6.85858 217.675 7.39646 217.675 7.98737C217.675 8.59343 217.769 9.12942 217.959 9.59533C218.152 10.0574 218.436 10.4211 218.811 10.6862C219.19 10.9476 219.66 11.0783 220.22 11.0783ZM227.834 7.16919V12.4192H226.493V0.782825H227.834V5.05555H227.947C228.152 4.6048 228.459 4.24684 228.868 3.98169C229.281 3.71275 229.83 3.57828 230.516 3.57828C231.11 3.57828 231.631 3.6976 232.078 3.93623C232.525 4.17108 232.872 4.53283 233.118 5.02146C233.368 5.50631 233.493 6.12373 233.493 6.87373V12.4192H232.152V6.96464C232.152 6.27146 231.972 5.73548 231.612 5.35669C231.256 4.97411 230.762 4.78283 230.129 4.78283C229.69 4.78283 229.296 4.87563 228.947 5.06123C228.603 5.24684 228.33 5.51767 228.129 5.87373C227.932 6.2298 227.834 6.66161 227.834 7.16919ZM239.741 3.69192V4.82828H235.219V3.69192H239.741ZM236.537 1.60101H237.878V9.91919C237.878 10.298 237.933 10.5821 238.043 10.7715C238.156 10.9571 238.3 11.0821 238.474 11.1465C238.652 11.2071 238.84 11.2374 239.037 11.2374C239.185 11.2374 239.306 11.2298 239.401 11.2146C239.495 11.1957 239.571 11.1806 239.628 11.1692L239.901 12.3737C239.81 12.4078 239.683 12.4419 239.52 12.476C239.357 12.5139 239.151 12.5328 238.901 12.5328C238.522 12.5328 238.151 12.4514 237.787 12.2885C237.427 12.1256 237.128 11.8775 236.889 11.5442C236.654 11.2109 236.537 10.7904 236.537 10.2828V1.60101ZM247.784 5.64646L246.58 5.98737C246.504 5.78661 246.392 5.59154 246.244 5.40214C246.1 5.20896 245.903 5.04987 245.653 4.92487C245.403 4.79987 245.083 4.73737 244.693 4.73737C244.159 4.73737 243.714 4.86048 243.358 5.10669C243.006 5.34911 242.83 5.65783 242.83 6.03283C242.83 6.36616 242.951 6.62942 243.193 6.8226C243.436 7.01578 243.814 7.17676 244.33 7.30555L245.625 7.62373C246.405 7.81313 246.987 8.1029 247.369 8.49305C247.752 8.87942 247.943 9.37752 247.943 9.98737C247.943 10.4874 247.799 10.9343 247.511 11.3283C247.227 11.7222 246.83 12.0328 246.318 12.2601C245.807 12.4874 245.212 12.601 244.534 12.601C243.644 12.601 242.907 12.4078 242.324 12.0215C241.741 11.6351 241.371 11.0707 241.216 10.3283L242.489 10.0101C242.61 10.4798 242.839 10.8321 243.176 11.0669C243.517 11.3018 243.962 11.4192 244.511 11.4192C245.136 11.4192 245.633 11.2866 246 11.0215C246.371 10.7525 246.557 10.4306 246.557 10.0556C246.557 9.75252 246.451 9.49873 246.239 9.29419C246.027 9.08586 245.701 8.93055 245.261 8.82828L243.807 8.48737C243.008 8.29798 242.42 8.00442 242.045 7.60669C241.674 7.20517 241.489 6.70328 241.489 6.10101C241.489 5.60858 241.627 5.17298 241.903 4.79419C242.184 4.4154 242.564 4.11805 243.045 3.90214C243.53 3.68623 244.08 3.57828 244.693 3.57828C245.557 3.57828 246.235 3.76767 246.727 4.14646C247.223 4.52525 247.576 5.02525 247.784 5.64646ZM254.462 12.4192V3.69192H255.757V5.0101H255.848C256.007 4.57828 256.295 4.2279 256.712 3.95896C257.128 3.69002 257.598 3.55555 258.121 3.55555C258.219 3.55555 258.342 3.55745 258.49 3.56123C258.638 3.56502 258.75 3.5707 258.825 3.57828V4.94192C258.78 4.93055 258.676 4.91351 258.513 4.89078C258.354 4.86426 258.185 4.85101 258.007 4.85101C257.583 4.85101 257.204 4.94002 256.871 5.11805C256.541 5.2923 256.28 5.53472 256.087 5.84533C255.897 6.15214 255.803 6.50252 255.803 6.89646V12.4192H254.462ZM263.808 12.601C262.967 12.601 262.242 12.4154 261.632 12.0442C261.026 11.6692 260.558 11.1465 260.229 10.476C259.903 9.80177 259.74 9.01767 259.74 8.12373C259.74 7.2298 259.903 6.44192 260.229 5.7601C260.558 5.07449 261.017 4.5404 261.604 4.15783C262.195 3.77146 262.884 3.57828 263.672 3.57828C264.126 3.57828 264.575 3.65404 265.018 3.80555C265.462 3.95707 265.865 4.20328 266.229 4.54419C266.592 4.88131 266.882 5.32828 267.098 5.8851C267.314 6.44192 267.422 7.12752 267.422 7.94192V8.5101H260.695V7.35101H266.058C266.058 6.85858 265.96 6.41919 265.763 6.03283C265.57 5.64646 265.293 5.34154 264.933 5.11805C264.577 4.89457 264.157 4.78283 263.672 4.78283C263.138 4.78283 262.676 4.9154 262.286 5.18055C261.899 5.44192 261.602 5.78283 261.393 6.20328C261.185 6.62373 261.081 7.07449 261.081 7.55555V8.32828C261.081 8.98737 261.195 9.54608 261.422 10.0044C261.653 10.459 261.973 10.8056 262.382 11.0442C262.791 11.279 263.267 11.3965 263.808 11.3965C264.161 11.3965 264.479 11.3472 264.763 11.2487C265.051 11.1465 265.299 10.9949 265.507 10.7942C265.715 10.5896 265.876 10.3359 265.99 10.0328L267.286 10.3965C267.149 10.8359 266.92 11.2222 266.598 11.5556C266.276 11.8851 265.878 12.1427 265.405 12.3283C264.931 12.5101 264.399 12.601 263.808 12.601ZM275.643 5.64646L274.439 5.98737C274.363 5.78661 274.251 5.59154 274.104 5.40214C273.96 5.20896 273.763 5.04987 273.513 4.92487C273.263 4.79987 272.943 4.73737 272.553 4.73737C272.018 4.73737 271.573 4.86048 271.217 5.10669C270.865 5.34911 270.689 5.65783 270.689 6.03283C270.689 6.36616 270.81 6.62942 271.053 6.8226C271.295 7.01578 271.674 7.17676 272.189 7.30555L273.484 7.62373C274.265 7.81313 274.846 8.1029 275.229 8.49305C275.611 8.87942 275.803 9.37752 275.803 9.98737C275.803 10.4874 275.659 10.9343 275.371 11.3283C275.087 11.7222 274.689 12.0328 274.178 12.2601C273.666 12.4874 273.071 12.601 272.393 12.601C271.503 12.601 270.767 12.4078 270.183 12.0215C269.6 11.6351 269.231 11.0707 269.075 10.3283L270.348 10.0101C270.469 10.4798 270.698 10.8321 271.036 11.0669C271.376 11.3018 271.821 11.4192 272.371 11.4192C272.996 11.4192 273.492 11.2866 273.859 11.0215C274.231 10.7525 274.416 10.4306 274.416 10.0556C274.416 9.75252 274.31 9.49873 274.098 9.29419C273.886 9.08586 273.56 8.93055 273.121 8.82828L271.666 8.48737C270.867 8.29798 270.28 8.00442 269.905 7.60669C269.534 7.20517 269.348 6.70328 269.348 6.10101C269.348 5.60858 269.486 5.17298 269.763 4.79419C270.043 4.4154 270.424 4.11805 270.905 3.90214C271.39 3.68623 271.939 3.57828 272.553 3.57828C273.416 3.57828 274.094 3.76767 274.587 4.14646C275.083 4.52525 275.435 5.02525 275.643 5.64646ZM281.48 12.601C280.639 12.601 279.914 12.4154 279.304 12.0442C278.698 11.6692 278.23 11.1465 277.901 10.476C277.575 9.80177 277.412 9.01767 277.412 8.12373C277.412 7.2298 277.575 6.44192 277.901 5.7601C278.23 5.07449 278.688 4.5404 279.276 4.15783C279.866 3.77146 280.556 3.57828 281.344 3.57828C281.798 3.57828 282.247 3.65404 282.69 3.80555C283.134 3.95707 283.537 4.20328 283.901 4.54419C284.264 4.88131 284.554 5.32828 284.77 5.8851C284.986 6.44192 285.094 7.12752 285.094 7.94192V8.5101H278.366V7.35101H283.73C283.73 6.85858 283.632 6.41919 283.435 6.03283C283.241 5.64646 282.965 5.34154 282.605 5.11805C282.249 4.89457 281.829 4.78283 281.344 4.78283C280.81 4.78283 280.348 4.9154 279.957 5.18055C279.571 5.44192 279.274 5.78283 279.065 6.20328C278.857 6.62373 278.753 7.07449 278.753 7.55555V8.32828C278.753 8.98737 278.866 9.54608 279.094 10.0044C279.325 10.459 279.645 10.8056 280.054 11.0442C280.463 11.279 280.938 11.3965 281.48 11.3965C281.832 11.3965 282.151 11.3472 282.435 11.2487C282.723 11.1465 282.971 10.9949 283.179 10.7942C283.387 10.5896 283.548 10.3359 283.662 10.0328L284.957 10.3965C284.821 10.8359 284.592 11.2222 284.27 11.5556C283.948 11.8851 283.55 12.1427 283.077 12.3283C282.603 12.5101 282.071 12.601 281.48 12.601ZM287.134 12.4192V3.69192H288.429V5.0101H288.52C288.679 4.57828 288.967 4.2279 289.384 3.95896C289.8 3.69002 290.27 3.55555 290.793 3.55555C290.891 3.55555 291.014 3.55745 291.162 3.56123C291.31 3.56502 291.421 3.5707 291.497 3.57828V4.94192C291.452 4.93055 291.348 4.91351 291.185 4.89078C291.026 4.86426 290.857 4.85101 290.679 4.85101C290.255 4.85101 289.876 4.94002 289.543 5.11805C289.213 5.2923 288.952 5.53472 288.759 5.84533C288.569 6.15214 288.474 6.50252 288.474 6.89646V12.4192H287.134ZM300.489 3.69192L297.261 12.4192H295.898L292.67 3.69192H294.125L296.534 10.6465H296.625L299.034 3.69192H300.489ZM305.605 12.601C304.764 12.601 304.039 12.4154 303.429 12.0442C302.823 11.6692 302.355 11.1465 302.026 10.476C301.7 9.80177 301.537 9.01767 301.537 8.12373C301.537 7.2298 301.7 6.44192 302.026 5.7601C302.355 5.07449 302.813 4.5404 303.401 4.15783C303.991 3.77146 304.681 3.57828 305.469 3.57828C305.923 3.57828 306.372 3.65404 306.815 3.80555C307.259 3.95707 307.662 4.20328 308.026 4.54419C308.389 4.88131 308.679 5.32828 308.895 5.8851C309.111 6.44192 309.219 7.12752 309.219 7.94192V8.5101H302.491V7.35101H307.855C307.855 6.85858 307.757 6.41919 307.56 6.03283C307.366 5.64646 307.09 5.34154 306.73 5.11805C306.374 4.89457 305.954 4.78283 305.469 4.78283C304.935 4.78283 304.473 4.9154 304.082 5.18055C303.696 5.44192 303.399 5.78283 303.19 6.20328C302.982 6.62373 302.878 7.07449 302.878 7.55555V8.32828C302.878 8.98737 302.991 9.54608 303.219 10.0044C303.45 10.459 303.77 10.8056 304.179 11.0442C304.588 11.279 305.063 11.3965 305.605 11.3965C305.957 11.3965 306.276 11.3472 306.56 11.2487C306.848 11.1465 307.096 10.9949 307.304 10.7942C307.512 10.5896 307.673 10.3359 307.787 10.0328L309.082 10.3965C308.946 10.8359 308.717 11.2222 308.395 11.5556C308.073 11.8851 307.675 12.1427 307.202 12.3283C306.728 12.5101 306.196 12.601 305.605 12.601ZM314.554 12.601C313.827 12.601 313.185 12.4173 312.628 12.0499C312.071 11.6787 311.635 11.1559 311.321 10.4817C311.007 9.80366 310.849 9.00252 310.849 8.07828C310.849 7.16161 311.007 6.36616 311.321 5.69192C311.635 5.01767 312.073 4.49684 312.634 4.12942C313.194 3.76199 313.842 3.57828 314.577 3.57828C315.145 3.57828 315.594 3.67298 315.923 3.86237C316.257 4.04798 316.51 4.2601 316.685 4.49873C316.863 4.73358 317.001 4.92676 317.099 5.07828H317.213V0.782825H318.554V12.4192H317.259V11.0783H317.099C317.001 11.2374 316.861 11.4381 316.679 11.6806C316.497 11.9192 316.238 12.1332 315.901 12.3226C315.563 12.5082 315.115 12.601 314.554 12.601ZM314.736 11.3965C315.274 11.3965 315.728 11.2563 316.099 10.976C316.471 10.6919 316.753 10.2999 316.946 9.79987C317.139 9.29608 317.236 8.71464 317.236 8.05555C317.236 7.40404 317.141 6.83396 316.952 6.34533C316.762 5.8529 316.482 5.47033 316.111 5.1976C315.74 4.92108 315.281 4.78283 314.736 4.78283C314.168 4.78283 313.694 4.92866 313.315 5.22033C312.94 5.5082 312.658 5.90025 312.469 6.39646C312.283 6.88889 312.19 7.44192 312.19 8.05555C312.19 8.67677 312.285 9.24116 312.474 9.74873C312.668 10.2525 312.952 10.654 313.327 10.9533C313.705 11.2487 314.175 11.3965 314.736 11.3965ZM322.173 12.5101C321.893 12.5101 321.652 12.4097 321.452 12.209C321.251 12.0082 321.151 11.7677 321.151 11.4874C321.151 11.2071 321.251 10.9665 321.452 10.7658C321.652 10.565 321.893 10.4646 322.173 10.4646C322.454 10.4646 322.694 10.565 322.895 10.7658C323.096 10.9665 323.196 11.2071 323.196 11.4874C323.196 11.673 323.149 11.8434 323.054 11.9987C322.963 12.154 322.84 12.279 322.685 12.3737C322.533 12.4646 322.363 12.5101 322.173 12.5101Z" fill="black"/>
</svg>
